<svg xmlns="http://www.w3.org/2000/svg" viewBox="0 0 80 80" role="img" aria-label="WhatSEO.ai icon">
  <title>WhatSEO</title>
  <defs>
    <linearGradient id="gold-i" x1="0" y1="0" x2="0" y2="1">
      <stop offset="0%" stop-color="#d4aa5a"/>
      <stop offset="100%" stop-color="#b88c24"/>
    </linearGradient>
    <linearGradient id="bg-i" x1="0" y1="0" x2="1" y2="1">
      <stop offset="0%" stop-color="#252525"/>
      <stop offset="100%" stop-color="#141414"/>
    </linearGradient>
  </defs>

  <rect width="80" height="80" rx="18" fill="url(#bg-i)"/>
  <rect width="80" height="80" rx="18" fill="none" stroke="#c9a85c" stroke-width="0.75" opacity="0.25"/>

  <!-- W-shaped bar chart -->
  <rect x="13" y="20" width="9" height="52" rx="3" fill="url(#gold-i)"/>
  <rect x="25" y="45" width="9" height="27" rx="3" fill="#c9a85c" opacity="0.5"/>
  <rect x="37" y="35" width="9" height="37" rx="3" fill="#c9a85c" opacity="0.72"/>
  <rect x="49" y="45" width="9" height="27" rx="3" fill="#c9a85c" opacity="0.5"/>
  <rect x="61" y="20" width="9" height="52" rx="3" fill="url(#gold-i)"/>
  <!-- Glow cap -->
  <rect x="61" y="20" width="9" height="6" rx="3" fill="#e8c87a" opacity="0.6"/>

  <!-- AI sparkle -->
  <g transform="translate(68,11)">
    <path d="M0-4.5 1.1-1.1 4.5 0 1.1 1.1 0 4.5-1.1 1.1-4.5 0-1.1-1.1Z"
      fill="#c9a85c" opacity="0.9"/>
  </g>
</svg>
